HIERARCHY
ROOT Hips
{
  OFFSET 54.1193 96.2391 7.31463
  CHANNELS 6 Xposition Yposition Zposition Zrotation Xrotation Yrotation
  JOINT spine
  {
    OFFSET 0 8.13249 0.467659
    CHANNELS 3 Zrotation Xrotation Yrotation
    JOINT spine1
    {
      OFFSET 0 10.3498 0
      CHANNELS 3 Zrotation Xrotation Yrotation
      JOINT spine2
      {
        OFFSET 0 9.91699 0
        CHANNELS 3 Zrotation Xrotation Yrotation
        JOINT Neck
        {
          OFFSET 0 25.461 1.2139
          CHANNELS 3 Zrotation Xrotation Yrotation
          JOINT Head
          {
            OFFSET 0 7.69245 0
            CHANNELS 3 Zrotation Xrotation Yrotation
            End Site
            {
              OFFSET 0 18.62 -6.14063
            }
          }
        }
        JOINT RightShoulder
        {
          OFFSET -4.17575 10.7096 -0.581445
          CHANNELS 3 Zrotation Xrotation Yrotation
          JOINT RightArm
          {
            OFFSET 0 14.0466 0
            CHANNELS 3 Zrotation Xrotation Yrotation
            JOINT RightArmRoll
            {
              OFFSET 0 7.09099 0
              CHANNELS 3 Zrotation Xrotation Yrotation
              JOINT RightForeArm
              {
                OFFSET 0 20.6535 0
                CHANNELS 3 Zrotation Xrotation Yrotation
                JOINT RightForeArmRoll
                {
                  OFFSET 0 7.95718 0
                  CHANNELS 3 Zrotation Xrotation Yrotation
                  JOINT RightHand
                  {
                    OFFSET 0 15.9683 0
                    CHANNELS 3 Zrotation Xrotation Yrotation
                    End Site
                    {
                      OFFSET 0 0 0
                    }
                  }
                }
              }
            }
          }
        }
        JOINT LeftShoulder
        {
          OFFSET 4.17575 10.7096 -0.581445
          CHANNELS 3 Zrotation Xrotation Yrotation
          JOINT LeftArm
          {
            OFFSET 0 14.0466 0
            CHANNELS 3 Zrotation Xrotation Yrotation
            JOINT LeftArmRoll
            {
              OFFSET 0 7.09099 0
              CHANNELS 3 Zrotation Xrotation Yrotation
              JOINT LeftForeArm
              {
                OFFSET 0 20.6535 0
                CHANNELS 3 Zrotation Xrotation Yrotation
                JOINT LeftForeArmRoll
                {
                  OFFSET 0 7.95718 0
                  CHANNELS 3 Zrotation Xrotation Yrotation
                  JOINT LeftHand
                  {
                    OFFSET 0 15.9683 0
                    CHANNELS 3 Zrotation Xrotation Yrotation
                    End Site
                    {
                      OFFSET 0 0 0
                    }
                  }
                }
              }
            }
          }
        }
      }
    }
  }
  JOINT RightUpLeg
  {
    OFFSET -7.20834 -1.32182 -1.10884
    CHANNELS 3 Zrotation Xrotation Yrotation
    JOINT RightUpLegRoll
    {
      OFFSET 0 18.7238 0
      CHANNELS 3 Zrotation Xrotation Yrotation
      JOINT RightLeg
      {
        OFFSET 0 -23.1866 0
        CHANNELS 3 Zrotation Xrotation Yrotation
        JOINT RightLegRoll
        {
          OFFSET 0 23.2624 0
          CHANNELS 3 Zrotation Xrotation Yrotation
          JOINT RightFoot
          {
            OFFSET 0 19.3621 0
            CHANNELS 3 Zrotation Xrotation Yrotation
            JOINT RightToeBase
            {
              OFFSET 0 16.1857 0
              CHANNELS 3 Zrotation Xrotation Yrotation
              End Site
              {
                OFFSET 0.00686052 7.83863 -0.903522
              }
            }
          }
        }
      }
    }
  }
  JOINT LeftUpLeg
  {
    OFFSET 7.20834 -1.32182 -1.10884
    CHANNELS 3 Zrotation Xrotation Yrotation
    JOINT LeftUpLegRoll
    {
      OFFSET 0 18.7239 0
      CHANNELS 3 Zrotation Xrotation Yrotation
      JOINT LeftLeg
      {
        OFFSET 0 23.1865 0
        CHANNELS 3 Zrotation Xrotation Yrotation
        JOINT LeftLegRoll
        {
          OFFSET 0 23.4775 0
          CHANNELS 3 Zrotation Xrotation Yrotation
          JOINT LeftFoot
          {
            OFFSET 0 19.147 0
            CHANNELS 3 Zrotation Xrotation Yrotation
            JOINT LeftToeBase
            {
              OFFSET 0 16.1857 0
              CHANNELS 3 Zrotation Xrotation Yrotation
              End Site
              {
                OFFSET -0.0307459 7.83862 -0.903522
              }
            }
          }
        }
      }
    }
  }
}
MOTION
Frames: 9
Frame Time: 0.00208333
53.9052 96.2696 8.59193 -0.841729 -3.12512 -1.18474 0.191715 -2.61774 -0.0958132 0.386226 -1.23286 -0.203833 0.388586 0.412192 -0.210402 -0.143015 11.648 -3.46067 -0.64964 5.10477 -3.58432 28.4584 -16.0555 -12.7288 7.34502 52.9858 94.3842 2.35158e-007 -3.33508e-008 -3.09822e-006 -6.03607 48.4579 5.82811 -5.61163e-006 -6.55699e-007 -3.00044 8.0295 -4.95145 0.697666 -37.3619 -14.4241 10.268 -0.737924 40.7295 -85.2705 -1.34795e-006 -3.71626e-006 7.75911e-006 4.3465 38.4742 -1.1777 -2.31234e-007 2.22999e-006 3.01552 -8.02908 -4.95148 -0.697681 173.093 0.217126 4.2077 180 7.01546e-015 178.919 177.602 8.35593 179.841 -1.49267e-006 -2.57806e-006 0.0265303 -17.4573 67.7491 19.3258 8.13649 25.2327 -3.48774 -173.138 -0.593063 -1.86701 4.5067e-006 -1.99009e-005 -1.04737 -1.15087 -11.794 0.329117 -3.98723e-007 3.14543e-006 -0.292354 21.8027 72.1395 -23.6603 -8.13664 25.2349 3.48472 
53.8965 96.2685 8.58963 -0.849192 -3.1288 -1.18392 0.191973 -2.61887 -0.0934228 0.388627 -1.23513 -0.199359 0.39094 0.409923 -0.205958 -0.146393 11.6721 -3.46919 -0.639456 5.09587 -3.59322 28.5511 -16.0535 -12.7161 7.75363 53.0033 94.0765 2.35158e-007 -3.33508e-008 -3.09822e-006 -6.0687 48.2046 5.80769 -5.61163e-006 -6.55699e-007 -3.00044 8.0295 -4.95145 0.697666 -37.376 -14.6003 10.4322 -0.978987 41.1341 -85.3145 -1.34795e-006 -3.71626e-006 7.75911e-006 4.35364 38.3671 -1.18712 -2.31234e-007 2.22999e-006 3.01552 -8.02908 -4.95148 -0.697681 173.104 0.205105 4.20202 180 7.01546e-015 178.919 177.602 8.33903 179.841 -1.49267e-006 -2.57806e-006 0.0262507 -17.4527 67.7417 19.3196 8.13649 25.2327 -3.48774 -173.127 -0.598757 -1.87485 4.5067e-006 -1.99009e-005 -1.04708 -1.15244 -11.7932 0.329336 -3.98723e-007 3.14543e-006 -0.292482 21.797 72.1396 -23.6602 -8.13664 25.2349 3.48472 
53.8951 96.2689 8.59487 -0.856655 -3.13252 -1.18272 0.192256 -2.62005 -0.0909474 0.391128 -1.2375 -0.194779 0.393393 0.407556 -0.20141 -0.150267 11.6979 -3.47759 -0.629406 5.08621 -3.60212 28.6437 -16.0511 -12.7031 8.16618 53.0203 93.7712 2.35158e-007 -3.33508e-008 -3.09822e-006 -6.10129 47.9533 5.78802 -5.61163e-006 -6.55699e-007 -3.00043 8.0295 -4.95145 0.697666 -37.3855 -14.7882 10.6084 -1.21442 41.5685 -85.39 -1.34795e-006 -3.71626e-006 7.75911e-006 4.35808 38.2736 -1.19854 -2.31234e-007 2.22999e-006 3.01551 -8.02908 -4.95148 -0.697681 173.115 0.192875 4.1963 180 7.01546e-015 178.919 177.603 8.32196 179.841 -1.49267e-006 -2.57806e-006 0.0259671 -17.4482 67.7343 19.3134 8.13649 25.2327 -3.48774 -173.117 -0.604637 -1.88275 4.5067e-006 -1.99009e-005 -1.04679 -1.15408 -11.7921 0.329545 -3.98723e-007 3.14543e-006 -0.292609 21.7909 72.1395 -23.6599 -8.13664 25.2349 3.48472 
53.8919 96.2695 8.59287 -0.864032 -3.13639 -1.18124 0.192549 -2.62122 -0.0884806 0.393647 -1.23983 -0.190264 0.395866 0.405221 -0.196925 -0.154529 11.7247 -3.4857 -0.619592 5.07598 -3.61084 28.7371 -16.0482 -12.6895 8.5811 53.0365 93.4678 2.35158e-007 -3.33508e-008 -3.09822e-006 -6.13386 47.7016 5.76864 -5.61163e-006 -6.55699e-007 -3.00043 8.0295 -4.95145 0.697666 -37.3915 -14.9836 10.7925 -1.44618 42.0213 -85.4882 -1.34795e-006 -3.71626e-006 7.75911e-006 4.36059 38.189 -1.21117 -2.31234e-007 2.22999e-006 3.01551 -8.02908 -4.95148 -0.697681 173.125 0.180512 4.19061 180 7.01546e-015 178.918 177.604 8.30499 179.841 -1.49267e-006 -2.57806e-006 0.0256791 -17.4435 67.7269 19.3071 8.13649 25.2327 -3.48774 -173.107 -0.610651 -1.89052 4.5067e-006 -1.99009e-005 -1.0465 -1.15566 -11.7908 0.329757 -3.98723e-007 3.14543e-006 -0.292733 21.7846 72.1392 -23.6593 -8.13664 25.2349 3.48472 
53.8945 96.2673 8.58387 -0.871237 -3.14051 -1.17958 0.192836 -2.6223 -0.0861159 0.396105 -1.242 -0.185981 0.39828 0.403046 -0.192672 -0.159067 11.7521 -3.49335 -0.610116 5.06537 -3.6192 28.8321 -16.0444 -12.6749 8.99688 53.0515 93.1657 2.35158e-007 -3.33508e-008 -3.09822e-006 -6.16647 47.4472 5.74909 -5.61163e-006 -6.55699e-007 -3.00042 8.0295 -4.95145 0.697666 -37.3955 -15.1818 10.9802 -1.67665 42.4818 -85.5993 -1.34795e-006 -3.71626e-006 7.75911e-006 4.36196 38.1085 -1.22419 -2.31234e-007 2.22999e-006 3.01551 -8.02908 -4.95148 -0.697681 173.136 0.168088 4.18504 180 7.01546e-015 178.918 177.605 8.28831 179.84 -1.49267e-006 -2.57806e-006 0.0253865 -17.4389 67.7197 19.301 8.13649 25.2327 -3.48774 -173.097 -0.61675 -1.89801 4.5067e-006 -1.99009e-005 -1.0462 -1.15709 -11.7896 0.329982 -3.98723e-007 3.14543e-006 -0.292855 21.7781 72.1389 -23.6587 -8.13664 25.2349 3.48472 
53.8913 96.2686 8.58525 -0.878183 -3.14499 -1.17783 0.193101 -2.62323 -0.0839471 0.39842 -1.24389 -0.182102 0.400556 0.401163 -0.188821 -0.163772 11.7795 -3.50039 -0.60108 5.05459 -3.627 28.9296 -16.0397 -12.6591 9.41197 53.0649 92.8645 2.35158e-007 -3.33508e-008 -3.09822e-006 -6.19917 47.1877 5.72892 -5.61163e-006 -6.55699e-007 -3.00042 8.0295 -4.95145 0.697666 -37.3988 -15.3786 11.1672 -1.90887 42.9387 -85.7127 -1.34795e-006 -3.71626e-006 7.75911e-006 4.36296 38.0271 -1.23682 -2.31234e-007 2.22999e-006 3.01551 -8.02908 -4.95148 -0.697681 173.146 0.155677 4.17964 180 7.01546e-015 178.918 177.605 8.27222 179.84 -1.49267e-006 -2.57806e-006 0.025089 -17.4342 67.7126 19.295 8.13649 25.2327 -3.48774 -173.087 -0.622882 -1.90505 4.5067e-006 -1.99009e-005 -1.0459 -1.15826 -11.7885 0.330233 -3.98723e-007 3.14543e-006 -0.292975 21.7715 72.1385 -23.658 -8.13664 25.2349 3.48472 
53.8876 96.2703 8.58843 -0.884786 -3.14991 -1.17611 0.193329 -2.62395 -0.0820675 0.400513 -1.24535 -0.178796 0.402617 0.399701 -0.185538 -0.168536 11.8062 -3.50665 -0.592585 5.04384 -3.63408 29.0304 -16.0338 -12.6417 9.82477 53.0765 92.5636 2.35158e-007 -3.33508e-008 -3.09822e-006 -6.23204 46.9208 5.70772 -5.61163e-006 -6.55699e-007 -3.00041 8.0295 -4.95145 0.697666 -37.4032 -15.5696 11.3493 -2.14639 43.3812 -85.8167 -1.34795e-006 -3.71626e-006 7.75911e-006 4.36438 37.94 -1.24825 -2.31234e-007 2.22999e-006 3.01551 -8.02908 -4.95148 -0.697681 173.155 0.143355 4.1745 180 7.01546e-015 178.917 177.606 8.25693 179.84 -1.49267e-006 -2.57806e-006 0.0247862 -17.4295 67.7057 19.2892 8.13649 25.2327 -3.48774 -173.078 -0.628998 -1.91148 4.5067e-006 -1.99009e-005 -1.04559 -1.15908 -11.7877 0.330521 -3.98723e-007 3.14543e-006 -0.293092 21.7651 72.1381 -23.6572 -8.13664 25.2349 3.48472 
53.887 96.2703 8.5861 -0.890959 -3.15538 -1.17451 0.193504 -2.6244 -0.0805709 0.402301 -1.24626 -0.176232 0.404382 0.398789 -0.182994 -0.173251 11.8318 -3.51197 -0.584732 5.03331 -3.64023 29.1355 -16.0266 -12.6225 10.2337 53.0857 92.2627 2.35158e-007 -3.33508e-008 -3.09822e-006 -6.26517 46.644 5.68507 -5.61163e-006 -6.55699e-007 -3.0004 8.0295 -4.95145 0.697666 -37.4103 -15.7505 11.5221 -2.39347 43.7986 -85.8988 -1.34795e-006 -3.71626e-006 7.75911e-006 4.36699 37.8425 -1.25769 -2.31234e-007 2.22999e-006 3.01551 -8.02908 -4.95148 -0.697681 173.164 0.131194 4.1697 180 7.01546e-015 178.917 177.607 8.24271 179.84 -1.49267e-006 -2.57806e-006 0.0244778 -17.4249 67.6992 19.2837 8.13649 25.2327 -3.48774 -173.07 -0.635047 -1.91714 4.5067e-006 -1.99009e-005 -1.04529 -1.15943 -11.7875 0.330857 -3.98723e-007 3.14543e-006 -0.293205 21.7588 72.1377 -23.6565 -8.13664 25.2349 3.48472 
53.8843 96.2687 8.57374 -0.896617 -3.16152 -1.17313 0.193609 -2.6245 -0.0795508 0.403706 -1.24649 -0.174579 0.405774 0.398558 -0.181356 -0.177808 11.8557 -3.51619 -0.577624 5.0232 -3.64527 29.2456 -16.0178 -12.6012 10.6372 53.0923 91.9611 2.35158e-007 -3.33508e-008 -3.09822e-006 -6.29866 46.3551 5.6606 -5.61163e-006 -6.55699e-007 -3.0004 8.0295 -4.95145 0.697666 -37.422 -15.917 11.6811 -2.65491 44.18 -85.9455 -1.34795e-006 -3.71626e-006 7.75911e-006 4.3716 37.7297 -1.26433 -2.31234e-007 2.22999e-006 3.01551 -8.02908 -4.95148 -0.697681 173.172 0.119269 4.16529 180 7.01546e-015 178.917 177.608 8.22983 179.84 -1.49267e-006 -2.57806e-006 0.0241636 -17.4203 67.693 19.2785 8.13649 25.2327 -3.48774 -173.063 -0.640978 -1.92186 4.5067e-006 -1.99009e-005 -1.04499 -1.15922 -11.788 0.331255 -3.98723e-007 3.14543e-006 -0.293315 21.7529 72.1374 -23.6558 -8.13664 25.2349 3.48472 
